<svg width="83" height="24" viewBox="0 0 83 24" fill="none" xmlns="http://www.w3.org/2000/svg">
<g clip-path="url(#clip0_2_32)">
<path d="M53.848 10.384C54.23 10.736 54.464 11.206 54.548 11.792H50.154C50.249 11.206 50.495 10.736 50.886 10.384C51.279 10.032 51.773 9.85599 52.367 9.85599C52.972 9.85599 53.466 10.032 53.848 10.384ZM52.431 15.36C51.773 15.36 51.243 15.168 50.838 14.784C50.436 14.39 50.197 13.862 50.122 13.2H56.411L56.427 12.608C56.427 11.37 56.051 10.346 55.297 9.53599C54.555 8.71399 53.577 8.30399 52.367 8.30399C51.157 8.30399 50.17 8.71999 49.405 9.55199C48.641 10.384 48.259 11.414 48.259 12.64C48.259 13.898 48.636 14.938 49.39 15.76C50.154 16.582 51.152 16.992 52.383 16.992C53.265 16.992 54.034 16.774 54.692 16.336C55.36 15.888 55.844 15.286 56.141 14.528L54.437 14.08C54.077 14.934 53.408 15.36 52.431 15.36Z" fill="white"/>
<path d="M8.46099 4.8L4.48099 7.2V2.4L8.46099 0V4.8Z" fill="#624DE3"/>
<path d="M16.422 9.59999V4.79999L20.403 2.39999V7.19999L16.422 9.59999Z" fill="#AB9FF4"/>
<path d="M8.461 4.8V0L12.442 2.4V7.2L8.461 4.8Z" fill="#AB9FF4"/>
<path d="M20.403 2.4L16.422 4.8L12.442 2.4L16.422 0L20.403 2.4Z" fill="#624DE3"/>
<path d="M16.422 24V19.2L12.442 16.8V21.6L16.422 24Z" fill="#AB9FF4"/>
<path d="M4.481 16.8V12L0.5 9.60001V14.4L4.481 16.8Z" fill="#624DE3"/>
<path d="M16.422 24V19.2L20.403 16.8V21.6L16.422 24Z" fill="#624DE3"/>
<path d="M8.461 9.60001L4.481 12L0.5 9.60001L4.481 7.20001L8.461 9.60001Z" fill="#AB9FF4"/>
<path d="M12.442 21.6L8.46099 24L4.48099 21.6L8.46099 19.2L12.442 21.6Z" fill="#624DE3"/>
<path d="M24.383 14.4L20.403 16.8L16.422 14.4L20.403 12L24.383 14.4Z" fill="#AB9FF4"/>
<path d="M8.46099 19.2L4.48099 21.6V16.8L8.46099 14.4V19.2Z" fill="#AB9FF4"/>
<path d="M16.422 14.4L12.442 16.8L8.461 14.4L12.442 12L16.422 14.4Z" fill="#624DE3"/>
<path d="M20.403 12V7.20001L24.383 9.60001V14.4L20.403 12Z" fill="#624DE3"/>
<path d="M12.442 12L8.461 14.4V9.60001L12.442 7.20001V12Z" fill="#8D7CF6"/>
<path d="M12.442 12V7.20001L16.422 9.60001V14.4L12.442 12Z" fill="#AB9FF4"/>
<path d="M76.829 16.72L73.501 8.496H75.524L77.769 14.512L80.046 8.496H82.02L78.358 17.536C77.944 18.56 77.477 19.274 76.957 19.68C76.436 20.096 75.789 20.304 75.014 20.304L74.473 20.272V18.576C74.621 18.586 74.78 18.592 74.95 18.592C75.311 18.592 75.624 18.496 75.89 18.304C76.165 18.112 76.415 17.738 76.638 17.184L76.829 16.72Z" fill="white"/>
<path d="M28.986 13.632L30.865 13.248C30.908 13.878 31.135 14.374 31.549 14.736C31.963 15.098 32.542 15.28 33.285 15.28C34.06 15.28 34.66 15.146 35.084 14.88C35.509 14.602 35.721 14.208 35.721 13.696C35.721 13.322 35.605 13.018 35.371 12.784C35.148 12.55 34.851 12.374 34.479 12.256C34.082 12.13 33.678 12.028 33.269 11.952C32.834 11.856 32.393 11.744 31.947 11.616C31.521 11.486 31.11 11.309 30.721 11.088C30.361 10.874 30.064 10.554 29.83 10.128C29.607 9.70201 29.495 9.17801 29.495 8.56001C29.495 7.62201 29.862 6.82601 30.594 6.17601C31.338 5.52601 32.319 5.20001 33.54 5.20001C34.75 5.20001 35.711 5.51401 36.422 6.14401C37.133 6.76201 37.536 7.57801 37.632 8.59201L35.753 8.94401C35.742 8.35801 35.546 7.87801 35.164 7.50401C34.782 7.13001 34.24 6.94401 33.54 6.94401C32.871 6.94401 32.345 7.08201 31.963 7.36001C31.592 7.62601 31.406 8.01001 31.406 8.51201C31.406 8.84201 31.517 9.12001 31.74 9.34401C31.974 9.55801 32.277 9.72201 32.648 9.84001C33.02 9.94601 33.428 10.048 33.874 10.144C34.32 10.23 34.766 10.346 35.211 10.496C35.657 10.634 36.067 10.822 36.437 11.056C36.809 11.28 37.106 11.61 37.329 12.048C37.563 12.474 37.679 12.998 37.679 13.616C37.679 14.65 37.271 15.478 36.453 16.096C35.637 16.714 34.548 17.024 33.189 17.024C31.873 17.024 30.87 16.704 30.18 16.064C29.491 15.414 29.093 14.602 28.986 13.632Z" fill="white"/>
<path d="M61.251 15.312C61.749 15.312 62.179 15.174 62.541 14.896C62.901 14.618 63.14 14.25 63.257 13.792L65.072 14.24C64.828 15.04 64.388 15.702 63.751 16.224C63.124 16.736 62.296 16.992 61.267 16.992C60.067 16.992 59.08 16.576 58.305 15.744C57.53 14.902 57.143 13.872 57.143 12.656C57.143 11.43 57.53 10.4 58.305 9.56799C59.08 8.72599 60.067 8.30399 61.267 8.30399C62.296 8.30399 63.124 8.56599 63.751 9.08799C64.388 9.59999 64.828 10.256 65.072 11.056L63.257 11.504C63.152 11.064 62.899 10.674 62.541 10.4C62.179 10.122 61.749 9.98399 61.251 9.98399C60.582 9.98399 60.046 10.234 59.643 10.736C59.239 11.226 59.038 11.866 59.038 12.656C59.038 13.446 59.239 14.086 59.643 14.576C60.046 15.066 60.582 15.312 61.251 15.312Z" fill="white"/>
<path d="M67.18 7.10399C66.83 7.10399 66.543 6.99799 66.321 6.78399C66.098 6.55999 65.986 6.27799 65.986 5.93599C65.986 5.58399 66.098 5.29599 66.321 5.07199C66.543 4.84799 66.83 4.73599 67.18 4.73599C67.519 4.73599 67.801 4.84799 68.024 5.07199C68.247 5.29599 68.359 5.58399 68.359 5.93599C68.359 6.27799 68.247 6.55999 68.024 6.78399C67.801 6.99799 67.52 7.10399 67.18 7.10399Z" fill="white"/>
<path d="M66.225 16.8V8.496H68.12V16.8H66.225Z" fill="white"/>
<path d="M70.264 8.49599V7.61599C70.264 6.67799 70.503 5.97399 70.98 5.50399C71.458 5.03399 72.111 4.79999 72.939 4.79999L73.576 4.84799V6.52799C73.512 6.50599 73.396 6.49599 73.225 6.49599C72.843 6.49599 72.568 6.59199 72.397 6.78399C72.238 6.96599 72.158 7.27999 72.158 7.72799V8.49599H73.623V10.016H72.158V16.8H70.264V10.016H68.942V8.49599H70.264Z" fill="white"/>
<path d="M41.051 15.712V20.128H39.156V8.49599H40.908V9.67999C41.491 8.76199 42.42 8.30399 43.694 8.30399C44.883 8.30399 45.817 8.71999 46.496 9.55199C47.187 10.384 47.531 11.418 47.531 12.656C47.531 13.894 47.187 14.928 46.496 15.76C45.817 16.582 44.883 16.992 43.694 16.992C42.484 16.992 41.603 16.566 41.051 15.712ZM40.987 12.656C40.987 13.424 41.194 14.058 41.608 14.56C42.033 15.062 42.601 15.312 43.312 15.312C44.013 15.312 44.575 15.062 45 14.56C45.424 14.048 45.637 13.414 45.637 12.656C45.637 11.878 45.424 11.232 45 10.72C44.575 10.208 44.013 9.95199 43.312 9.95199C42.601 9.95199 42.033 10.208 41.608 10.72C41.194 11.222 40.987 11.866 40.987 12.656Z" fill="white"/>
</g>
<defs>
<clipPath id="clip0_2_32">
<rect width="82" height="24" fill="white" transform="translate(0.5)"/>
</clipPath>
</defs>
</svg>
